# xmcd CD database file
#
# Track frame offsets:
#	150
#	15576
#	31408
#	43820
#	62330
#	76605
#	93102
#	111310
#	125747
#	141448
#
# Disc length: 2080 seconds
#
# Revision: 0
# Processed by: cddbd v1.4PL0 Copyright (c) Steve Scherf et al.
# Submitted via: CDex 1.40Beta9
#
DISCID=7c081e0a
DTITLE=Bobby Carlton - Bobby Carlton
DYEAR=2002
DGENRE=Country
TTITLE0=She's Got My Heart
TTITLE1=I've Been Hurt By The Best
TTITLE2=Carry Us Away
TTITLE3=As Long As Forever Takes
TTITLE4=Paper Plates and Dixie Cups
TTITLE5=She Didn't Leave Blue
TTITLE6=It Wouldn't Hurt To Ask
TTITLE7=I Want To Be The String
TTITLE8=This Side Of The Moon
TTITLE9=Not A Brick Out Of Place
EXTD=YEAR: 2002 ID3G: 2
EXTT0=
EXTT1=
EXTT2=
EXTT3=
EXTT4=
EXTT5=
EXTT6=
EXTT7=
EXTT8=
EXTT9=
PLAYORDER=
